<?xml version="1.0" ?><svg id="social_x5F_overhear" style="enable-background:new 0 0 32 32;" version="1.1" viewBox="0 0 32 32" xml:space="preserve" xmlns="http://www.w3.org/2000/svg" xmlns:xlink="http://www.w3.org/1999/xlink"><style type="text/css">
	.st0{fill:#FD5C3F;}
</style><g><path class="st0" d="M29,13c-0.4,0-0.7,0.1-1,0.2V5c0-1.7-1.3-3-3-3c-0.4,0-0.8,0.1-1.1,0.2C23.5,0.9,22.4,0,21,0c-1.7,0-3,1.3-3,3   v1c-1.9-2.5-4.8-4-8-4C4.5,0,0,4.5,0,10h2c0-4.4,3.6-8,8-8c2.2,0,4.2,0.9,5.6,2.3c-0.6,0.3-1.1,0.8-1.4,1.4C13.2,4.7,11.7,4,10,4   c-3.3,0-6,2.7-6,6h2c0-2.2,1.8-4,4-4s4,1.8,4,4v9l1,11.1V32h2v-2l-1-11V7c0-0.6,0.4-1,1-1s1,0.4,1,1v11h2V3c0-0.6,0.4-1,1-1   s1,0.4,1,1v15h2V5c0-0.6,0.4-1,1-1s1,0.4,1,1v17h2v-6c0-0.6,0.4-1,1-1s1,0.4,1,1v9.8l-1.9,3.8C28,29.7,28,29.8,28,30v2h2v-1.8   l1.9-3.8C32,26.3,32,26.2,32,26V16C32,14.3,30.7,13,29,13z"/><path class="st0" d="M11,27c0,1.7-1.3,3-3,3s-3-1.3-3-3H3c0,2.8,2.2,5,5,5s5-2.2,5-5v-3h-2V27z"/><path class="st0" d="M3,19v2c2.2,0,4-1.8,4-4s-1.8-4-4-4v2c1.1,0,2,0.9,2,2S4.1,19,3,19z"/><path class="st0" d="M4,25c3.9,0,7-3.1,7-7c0-0.6,0.4-1,1-1v-2c-1.7,0-3,1.3-3,3c0,2.8-2.2,5-5,5V25z"/></g></svg>